<svg height="512pt" viewBox="0 -44 512 512" width="512pt" xmlns="http://www.w3.org/2000/svg"><path d="m512 244.167969c0 48.722656-31.679688 116.050781-69.988281 152.832031-16.988281 16.335938-35.285157 26.644531-52.703125 26.644531-11.011719 0-21.992188-1.769531-31.4375-4.621093-12.945313-3.917969-26.710938-3.917969-39.65625 0-9.445313 2.851562-20.425782 4.621093-31.4375 4.621093-18.246094 0-37.472656-11.324219-55.144532-29.035156-37.203124-37.253906-67.546874-102.769531-67.546874-150.441406 0-70.339844 42.078124-112.839844 81.640624-123.097657 18.953126-4.914062 40.945313-1.75 58.703126 2.871094 18.367187 4.789063 37.457031 5.589844 56.058593 2.40625 3.75-.648437 7.472657-1.449218 11.164063-2.40625 17.761718-4.621094 39.742187-7.785156 58.703125-2.871094 39.570312 10.257813 81.644531 52.757813 81.644531 123.097657zm0 0" fill="#fc6d5e"/><g fill="#e54e42"><path d="m301.449219 419.023438c-12.152344-3.679688-25.027344-3.902344-37.269531-.675782 7.582031 3.421875 15.171874 5.296875 22.597656 5.296875 7.890625 0 15.75-.917969 23.054687-2.484375-2.890625-.621094-5.703125-1.328125-8.382812-2.136718zm0 0"/><path d="m248.011719 123.945312c18.367187 4.785157 37.453125 5.585938 56.054687 2.402344 1.9375-.332031 3.863282-.707031 5.78125-1.125-1.8125-.390625-3.617187-.8125-5.414062-1.28125-17.761719-4.621094-39.753906-7.785156-58.703125-2.871094-1.453125.378907-2.910157.800782-4.367188 1.265626 2.269531.507812 4.488281 1.046874 6.648438 1.609374zm0 0"/><path d="m430.355469 121.070312c-16.65625-4.316406-35.640625-2.398437-52.050781 1.265626 38.234374 12.15625 77.273437 54.074218 77.273437 121.832031 0 48.722656-31.679687 116.050781-69.984375 152.832031-9.746094 9.371094-19.921875 16.75-30.113281 21.347656.796875.210938 1.59375.433594 2.390625.675782 9.445312 2.851562 20.425781 4.621093 31.4375 4.621093 17.417968 0 35.714844-10.308593 52.703125-26.640625 38.304687-36.785156 69.988281-104.117187 69.988281-152.835937 0-70.339844-42.074219-112.839844-81.644531-123.097657zm0 0"/></g><path d="m420.542969 71.949219c18.046875-18.046875 25.75-42.523438 23.109375-66.058594-.316406-2.828125-2.558594-5.066406-5.386719-5.386719-23.535156-2.640625-48.007813 5.0625-66.054687 23.109375-17.296876 17.296875-25.089844 40.492188-23.386719 63.109375.347656 4.621094 3.992187 8.265625 8.613281 8.613282 22.613281 1.703124 45.808594-6.089844 63.105469-23.386719zm0 0" fill="#badb47"/><path d="m443.652344 5.890625c-.316406-2.828125-2.558594-5.066406-5.386719-5.382813-6.253906-.703124-12.574219-.667968-18.824219.09375 2.601563.5 4.621094 2.621094 4.917969 5.289063 2.640625 23.535156-5.058594 48.011719-23.109375 66.0625-12.984375 12.984375-29.300781 20.613281-46.195312 22.886719.753906.261718 1.550781.4375 2.382812.496094 22.613281 1.703124 45.808594-6.089844 63.105469-23.382813 18.046875-18.050781 25.746093-42.527344 23.109375-66.0625zm0 0" fill="#82c11f"/><path d="m410.921875 33.238281c-3.019531-3.019531-7.914063-3.019531-10.9375 0l-66.226563 66.230469c-.945312-2.605469-1.949218-5.191406-3.023437-7.753906-3.621094-8.648438-8.023437-17.070313-13.082031-25.03125-2.289063-3.605469-7.070313-4.667969-10.671875-2.378906-3.605469 2.292968-4.667969 7.070312-2.378907 10.671874 4.589844 7.226563 8.585938 14.867188 11.875 22.714844 7.539063 18 11.535157 37.304688 11.878907 57.371094.070312 4.226562 3.515625 7.601562 7.726562 7.601562h.132813c4.269531-.074218 7.671875-3.59375 7.601562-7.863281-.226562-13.183593-1.902344-26.070312-4.980468-38.542969l72.085937-72.085937c3.019531-3.019531 3.019531-7.917969 0-10.933594zm0 0" fill="#aa6344"/><path d="m125.320312 423.644531c-69.210937 0-125.320312-56.109375-125.320312-125.324219v-.003906c0-69.214844 56.109375-125.324218 125.320312-125.324218 69.214844 0 125.324219 56.109374 125.324219 125.324218v.003906c0 69.214844-56.109375 125.324219-125.324219 125.324219zm0 0" fill="#fdb659"/><path d="m125.320312 172.992188c-5.992187 0-11.886718.429687-17.65625 1.246093 60.851563 8.582031 107.667969 60.859375 107.667969 124.078125 0 63.222656-46.816406 115.5-107.667969 124.082032 5.769532.8125 11.664063 1.246093 17.65625 1.246093 69.214844 0 125.324219-56.113281 125.324219-125.328125s-56.109375-125.324218-125.324219-125.324218zm0 0" fill="#fd9e28"/><path d="m184.683594 225.089844c0 5.070312-4.109375 9.175781-9.175782 9.175781-5.066406 0-9.171874-4.105469-9.171874-9.175781 0-5.066406 4.105468-9.171875 9.171874-9.171875 5.066407 0 9.175782 4.105469 9.175782 9.171875zm0 0" fill="#aa6344"/></svg>