<svg height="512pt" viewBox="-60 0 512 512.00077" width="512pt" xmlns="http://www.w3.org/2000/svg"><path d="m391.082031 176.898438c.585938-97.46875-77.285156-176.25-174.90625-176.89453175-97.808593-.64453125-177.296875 78.32031275-177.296875 175.82031275v32.011719l-37.496094 82.070312c-4.570312 10.007812 2.753907 21.382812 13.769532 21.382812h42.832031v83.996094c0 25.878906 26.117187 43.617188 50.226563 34.117188l68.449218-26.980469v98.613281c0 7.652344 7.65625 12.945313 14.832032 10.257813l137.527343-51.546875c8.402344-3.148438 13.964844-11.167969 13.964844-20.125v-72.394532c0-38.164062 9.867187-75.550781 27.75-109.28125 12.835937-24.214843 20.175781-51.785156 20.347656-81.046874zm0 0" fill="#fedfc5"/><path d="m216.171875.00390625c-11.902344-.07812505-23.535156 1.03124975-34.789063 3.20312475 81.796876 15.695313 142.84375 87.355469 142.324219 173.691407-.175781 29.261718-7.511719 56.832031-20.347656 81.046874-17.882813 33.730469-27.75 71.117188-27.75 109.28125v72.394532c0 8.957031-5.5625 16.976562-13.964844 20.125l-84.984375 31.851562v9.4375c0 7.652344 7.65625 12.945313 14.832032 10.257813l137.527343-51.546875c8.402344-3.148438 13.964844-11.167969 13.964844-20.125v-72.394532c0-38.164062 9.867187-75.550781 27.746094-109.28125 12.839843-24.214843 20.175781-51.785156 20.351562-81.046874.585938-97.46875-77.285156-176.25-174.910156-176.89453175zm0 0" fill="#fecbaa"/><path d="m220.300781 130.292969c-16.914062 26.652343-18.628906 58.59375-7.429687 85.699219 29.335937-1.472657 57.523437-16.664063 74.4375-43.320313 15.1875-23.9375 18.121094-52.136719 10.445312-77.273437-1.558594-5.105469-6.652344-8.328126-11.941406-7.550782-26.039062 3.808594-50.324219 18.503906-65.511719 42.445313zm0 0" fill="#ea3f78"/><path d="m205.390625 130.292969c16.914063 26.652343 18.628906 58.59375 7.425781 85.699219-29.332031-1.472657-57.519531-16.664063-74.433594-43.320313-15.1875-23.9375-18.121093-52.136719-10.445312-77.273437 1.558594-5.105469 6.652344-8.328126 11.941406-7.550782 26.039063 3.808594 50.324219 18.503906 65.511719 42.445313zm0 0" fill="#ea3f78"/><path d="m240.25 163.875c-22.347656 22.308594-32.390625 52.480469-27.40625 81.375 28.945312 4.980469 61.148438-3.066406 83.496094-25.375 20.066406-20.039062 29.113281-46.914062 27.136718-73.113281-.402343-5.324219-4.664062-9.582031-9.996093-9.980469-26.246094-1.972656-53.160157 7.054688-73.230469 27.09375zm0 0" fill="#fd6096"/><path d="m185.441406 163.875c22.347656 22.308594 32.390625 52.480469 27.40625 81.375-28.945312 4.980469-61.148437-3.066406-83.496094-25.375-20.066406-20.039062-29.113281-46.914062-27.136718-73.113281.402344-5.324219 4.664062-9.582031 9.996094-9.980469 26.242187-1.972656 53.160156 7.054688 73.230468 27.09375zm0 0" fill="#fd6096"/><path d="m163.40625 150.058594c0 39.332031 19.53125 74.109375 49.4375 95.195312 29.90625-21.085937 49.441406-55.863281 49.441406-95.195312 0-35.324219-15.753906-66.972656-40.628906-88.332032-5.054688-4.339843-12.566406-4.339843-17.621094 0-24.875 21.355469-40.628906 53.007813-40.628906 88.332032zm0 0" fill="#fd82ac"/></svg>