<svg height="512pt" viewBox="0 -56 512 512" width="512pt" xmlns="http://www.w3.org/2000/svg"><path d="m203.988281 155.867188-110.070312 110.074218c-4.238281 4.234375-9.796875 6.359375-15.359375 6.359375-5.566406 0-11.125-2.125-15.359375-6.359375-8.480469-8.480468-8.484375-22.226562-.011719-30.710937l-19.332031 19.332031c-8.484375 8.484375-22.238281 8.484375-30.722657 0-8.484374-8.484375-8.484374-22.238281 0-30.722656l23.953126-23.953125c-8.484376 8.480469-22.238282 8.480469-30.722657 0-8.484375-8.484375-8.484375-22.242188 0-30.726563l31.109375-31.109375c-8.484375 8.484375-22.238281 8.484375-30.722656 0s-8.484375-22.238281 0-30.722656l73.363281-73.363281c33.035157-33.035156 92.617188-50.238282 130.128907-12.722656l16.726562 16.726562c18.585938 18.585938 29.027344 43.792969 29.027344 70.078125v104.699219c0 14.378906-11.652344 26.035156-26.03125 26.035156-14.386719 0-26.042969-11.671875-26.03125-26.058594zm0 0" fill="#ffcfa2"/><g fill="#e8b07e"><path d="m122.414062 237.441406 81.570313-81.578125-.050781 56.851563v.019531c0 14.375 11.652344 26.039063 26.027344 26.039063 14.378906 0 26.03125-11.652344 26.03125-26.03125v-104.695313c0-26.289063-10.433594-51.496094-29.023438-70.082031l-16.730469-16.730469c-13.746093-13.75-30.449219-20.136719-47.734375-21.097656 33.605469 4.324219 110.136719 67.511719 34.855469 142.785156-41.359375 41.367187-71.589844 73-71.589844 73l-3.363281 21.519531zm0 0"/><path d="m59.335938 260.707031c.992187 1.886719 2.28125 3.652344 3.859374 5.230469 4.242188 4.234375 9.796876 6.359375 15.359376 6.359375s11.125-2.125 15.359374-6.359375l44.300782-44.300781.019531-18.175781-53.394531 53.394531c-4.242188 4.242187-9.792969 6.359375-15.355469 6.359375-3.5 0-6.980469-.835938-10.148437-2.507813zm0 0"/><path d="m9.273438 249.324219c.992187 1.886719 2.28125 3.652343 3.859374 5.230469 4.242188 4.234374 9.796876 6.359374 15.359376 6.359374s11.125-2.125 15.359374-6.359374l97.714844-97.710938c1.203125-1.199219 1.878906-2.832031 1.878906-4.53125.007813-5.722656-6.910156-8.589844-10.957031-4.546875l-97.710937 97.707031c-4.242188 4.242188-9.792969 6.355469-15.359375 6.355469-3.496094.003906-6.976563-.832031-10.144531-2.503906zm0 0"/><path d="m2.503906 194.652344c.988282 1.886718 2.28125 3.652344 3.859375 5.230468 4.242188 4.234376 9.792969 6.359376 15.359375 6.359376 5.5625 0 11.125-2.125 15.355469-6.359376l71.078125-71.070312c1.199219-1.203125 1.875-2.832031 1.878906-4.53125.007813-5.722656-6.910156-8.59375-10.957031-4.546875l-71.070313 71.066406c-4.242187 4.242188-9.796874 6.355469-15.359374 6.355469-3.5.003906-6.976563-.832031-10.144532-2.503906zm0 0"/><path d="m2.886719 132.816406c.988281 1.890625 2.277343 3.652344 3.859375 5.234375 4.242187 4.230469 9.792968 6.355469 15.355468 6.355469 5.566407 0 11.128907-2.125 15.359376-6.355469l45.796874-45.792969c1.199219-1.203124 1.878907-2.832031 1.878907-4.53125.007812-5.722656-6.910157-8.59375-10.957031-4.546874l-45.792969 45.785156c-4.238281 4.242187-9.792969 6.359375-15.355469 6.359375-3.5 0-6.976562-.835938-10.144531-2.507813zm0 0"/></g><path d="m490.273438 206.257812c-5.5625 0-11.117188-2.128906-15.359376-6.371093l23.945313 23.957031c4.242187 4.242188 6.371094 9.804688 6.371094 15.359375 0 5.550781-2.128907 11.113281-6.371094 15.355469-8.480469 8.484375-22.230469 8.484375-30.714844 0l-19.332031-19.332032c8.472656 8.484376 8.464844 22.234376-.007812 30.71875-4.242188 4.230469-9.796876 6.355469-15.371094 6.355469-5.5625 0-11.113282-2.125-15.355469-6.355469l-28.488281-28.5h-.011719l-81.566406-81.578124.050781 56.851562v.019531c0 14.378907-11.652344 26.039063-26.03125 26.039063-14.375 0-26.027344-11.652344-26.027344-26.027344v-104.699219c0-26.289062 10.433594-51.492187 29.023438-70.082031l16.730468-16.730469c13.746094-13.75 30.445313-20.136719 47.734376-21.097656 29.871093-1.683594 61.460937 12.902344 82.394531 33.824219l73.363281 73.363281c4.242188 4.242187 6.359375 9.804687 6.359375 15.367187 0 5.554688-2.117187 11.117188-6.359375 15.359376-8.484375 8.484374-22.242188 8.484374-30.726562 0l31.109374 31.105468c4.242188 4.242188 6.367188 9.804688 6.367188 15.359375 0 5.5625-2.125 11.125-6.367188 15.367188-4.242187 4.242187-9.804687 6.371093-15.359374 6.371093zm0 0" fill="#ffcfa2"/><path d="m389.578125 237.445312-81.566406-81.578124.050781 56.851562v.019531c0 14.378907-11.652344 26.039063-26.03125 26.039063-14.375 0-26.027344-11.652344-26.027344-26.027344v-104.699219c0-26.289062 10.433594-51.492187 29.023438-70.082031l16.730468-16.730469c13.746094-13.75 30.445313-20.136719 47.734376-21.097656-33.605469 4.324219-110.136719 67.511719-34.855469 142.785156 41.359375 41.367188 71.589843 73 71.589843 73l3.363282 21.519531zm0 0" fill="#e8b07e"/><path d="m452.65625 260.710938c-.988281 1.886718-2.277344 3.652343-3.859375 5.230468-4.242187 4.230469-9.792969 6.359375-15.355469 6.359375-5.566406 0-11.128906-2.128906-15.359375-6.359375l-44.300781-44.300781-.019531-18.175781 53.390625 53.394531c4.242187 4.242187 9.796875 6.359375 15.359375 6.359375 3.5 0 6.976562-.835938 10.144531-2.507812zm0 0" fill="#e8b07e"/><path d="m502.722656 249.328125c-.992187 1.886719-2.28125 3.652344-3.863281 5.230469-4.242187 4.234375-9.792969 6.359375-15.355469 6.359375s-11.128906-2.125-15.359375-6.359375l-97.714843-97.710938c-1.203126-1.199218-1.878907-2.832031-1.878907-4.53125-.007812-5.722656 6.910157-8.589844 10.957031-4.546875l97.710938 97.707031c4.242188 4.242188 9.792969 6.355469 15.355469 6.355469 3.5.003907 6.976562-.832031 10.148437-2.503906zm0 0" fill="#e8b07e"/><path d="m509.492188 194.65625c-.992188 1.886719-2.28125 3.652344-3.859376 5.230469-4.242187 4.234375-9.796874 6.359375-15.359374 6.359375s-11.125-2.125-15.359376-6.359375l-71.074218-71.070313c-1.203125-1.199218-1.878906-2.832031-1.878906-4.53125-.007813-5.722656 6.910156-8.589844 10.957031-4.546875l71.070312 71.066407c4.242188 4.242187 9.792969 6.355468 15.359375 6.355468 3.496094.003906 6.976563-.832031 10.144532-2.503906zm0 0" fill="#e8b07e"/><path d="m509.109375 132.820312c-.988281 1.890626-2.28125 3.652344-3.859375 5.234376-4.242188 4.230468-9.796875 6.355468-15.359375 6.355468s-11.125-2.125-15.355469-6.355468l-45.796875-45.792969c-1.203125-1.199219-1.878906-2.832031-1.878906-4.53125-.007813-5.722657 6.910156-8.59375 10.957031-4.546875l45.789063 45.785156c4.242187 4.242188 9.796875 6.359375 15.359375 6.359375 3.5 0 6.976562-.835937 10.144531-2.507813zm0 0" fill="#e8b07e"/><path d="m259.128906 332.390625c-42.617187 0-83.445312-18.152344-112.019531-49.808594-3.46875-3.84375-3.167969-9.769531.675781-13.238281 3.839844-3.46875 9.769532-3.164062 13.238282.675781 25.023437 27.726563 60.785156 43.625 98.105468 43.625 37.320313 0 73.082032-15.898437 98.105469-43.625 3.472656-3.84375 9.398437-4.144531 13.238281-.675781 3.84375 3.46875 4.148438 9.394531.679688 13.238281-28.574219 31.652344-69.40625 49.808594-112.023438 49.808594zm0 0" fill="#ffcfa2"/><path d="m259.128906 400.222656c-53.027344 0-104.160156-19.214844-143.980468-54.097656-3.894532-3.410156-4.285157-9.332031-.875-13.226562 3.414062-3.894532 9.335937-4.285157 13.226562-.875 36.402344 31.890624 83.148438 49.453124 131.628906 49.453124 48.480469 0 95.226563-17.5625 131.628906-49.453124 3.890626-3.410157 9.8125-3.019532 13.226563.875 3.410156 3.894531 3.015625 9.816406-.875 13.226562-39.820313 34.882812-90.953125 54.097656-143.980469 54.097656zm0 0" fill="#ffcfa2"/></svg>