<svg height="512pt" viewBox="-78 0 512 512" width="512pt" xmlns="http://www.w3.org/2000/svg"><path d="m355.796875 178.28125v81.523438l-92.792969 89.363281-162.292968 2.652343-100.710938-92.015624v-80.675782c0-33.78125 20.835938-64.53125 52.710938-75.742187.921874-.324219 1.855468-.640625 2.789062-.933594 20.71875-6.496094 41.425781-13.003906 62.144531-19.5 4.457031-1.402344 8.921875-2.796875 13.378907-4.199219 12.574218-3.132812 28.605468-5.890625 46.839843-5.929687 10.242188-.03125 25.59375.050781 44.195313 5.835937.125.039063.230468.070313.300781.09375l15.164063 4.757813 60.363281 18.941406c1.898437.597656 3.753906 1.257813 5.589843 1.96875 30.238282 11.839844 51.953126 41.410156 52.320313 73.859375zm0 0" fill="#ffae85"/><path d="m61.519531 177.035156-.054687-.015625-35.917969 74.011719.664063 20.367188 74.496093 80.425781 162.296875-2.660157 76.304688-96.390624-44.378906-75.753907-.179688.027344c-7.984375 1.128906-14.074219 7.640625-14.773438 15.671875-7.253906 83.347656-45.582031 101.953125-86.640624 102.625l-38.824219.636719c-31.609375.515625-75.023438-18.332031-79.285157-101.136719-.421874-8.222656-5.84375-15.339844-13.707031-17.808594zm0 0" fill="#ef9b75"/><path d="m237.523438 83.511719c-15.925782 13.933593-36.792969 22.390625-59.628907 22.390625-23.132812 0-44.25-8.675782-60.25-22.949219 4.457031-1.402344 8.921875-2.796875 13.378907-4.199219 12.574218-3.132812 28.605468-5.890625 46.839843-5.929687 10.242188-.03125 25.59375.050781 44.195313 5.835937.125.039063.230468.070313.300781.09375zm0 0" fill="#ef9b75"/><path d="m242.703125 6.890625v16.703125c0 35.765625-29.015625 64.757812-64.804687 64.757812-35.792969 0-64.808594-28.992187-64.808594-64.757812v-16.703125c0-3.804687 3.085937-6.890625 6.894531-6.890625h115.824219c3.808594 0 6.894531 3.085938 6.894531 6.890625zm0 0" fill="#ffae85"/><path d="m355.597656 504.613281c.105469 4.042969-3.144531 7.386719-7.191406 7.386719h-341.203125c-3.984375 0-7.203125-3.21875-7.203125-7.199219v-73.476562c0-33.78125 20.835938-64.53125 52.710938-75.742188.921874-.324219 1.855468-.640625 2.789062-.933593 18.339844-5.753907 36.6875-11.515626 55.027344-17.265626 6.835937-2.148437 13.660156-4.285156 20.496094-6.433593 12.574218-3.132813 28.605468-5.890625 46.839843-5.929688 10.242188-.03125 25.59375.050781 44.195313 5.835938.125.039062.230468.070312.304687.09375l22.417969 7.027343 53.105469 16.671876c1.898437.597656 3.753906 1.257812 5.589843 1.96875 30.238282 11.839843 49.785157 41.40625 50.140626 73.855468zm0 0" fill="#fedfc5"/><g fill="#fecbaa"><path d="m80.433594 452.277344v59.722656h-15.730469v-59.722656c0-4.335938 3.523437-7.855469 7.867187-7.855469 4.339844 0 7.863282 3.519531 7.863282 7.855469zm0 0"/><path d="m288.683594 452.277344v59.722656h-15.730469v-59.722656c0-4.335938 3.523437-7.855469 7.863281-7.855469 4.34375 0 7.867188 3.519531 7.867188 7.855469zm0 0"/><path d="m244.78125 337.976562c-15.769531 19.46875-39.878906 31.90625-66.886719 31.90625-23.761719 0-45.277343-9.617187-60.835937-25.1875-2.316406-2.304687-4.5-4.746093-6.53125-7.3125 6.835937-2.148437 13.660156-4.285156 20.496094-6.433593 12.574218-3.132813 28.605468-5.890625 46.839843-5.929688 10.242188-.03125 25.59375.050781 44.195313 5.835938.125.039062.230468.070312.304687.09375zm0 0"/></g><path d="m113.089844 275.765625v-49.46875c0-35.777344 29.003906-64.78125 64.78125-64.78125h.050781c35.777344 0 64.78125 29.003906 64.78125 64.78125v49.46875c0 35.777344-29.003906 64.78125-64.78125 64.78125h-.050781c-35.777344 0-64.78125-29.003906-64.78125-64.78125zm0 0" fill="#fedfc5"/><path d="m61.464844 177.019531v96.148438l46.894531 62.871093 22.667969-5.089843-9.109375 16.035156c-.894531 1.582031-.433594 3.582031 1.066406 4.609375l23.425781 16.039062c5.269532 3.605469 4.136719 11.679688-1.921875 13.695313l-17.261719 5.75c-8.863281 2.953125-18.613281 1.417969-26.136718-4.117187l-87.460938-81.570313c-8.695312-8.109375-13.628906-19.457031-13.628906-31.335937v-28.972657" fill="#ffae85"/><path d="m355.792969 241.082031-.089844 28.972657c0 11.882812-4.933594 23.230468-13.628906 31.335937l-87.460938 81.574219c-7.523437 5.53125-17.273437 7.066406-26.136719 4.113281l-17.261718-5.746094c-6.058594-2.019531-7.191406-10.09375-1.925782-13.699219l23.429688-16.039062c1.5-1.023438 1.960938-3.027344 1.066406-4.605469l-9.441406-15.414062 23 4.464843 47.585938-61.976562v-97.039062" fill="#ffae85"/></svg>