<svg height="512pt" viewBox="0 -78 512 512" width="512pt" xmlns="http://www.w3.org/2000/svg"><path d="m512 219.128906c0 3.820313-.15625 7.609375-.464844 11.355469-2.726562 33.488281-17.449218 63.597656-39.863281 85.996094-24.90625 24.925781-59.328125 40.332031-97.34375 40.332031h-236.65625c-76.03125 0-137.671875-61.644531-137.671875-137.683594v-.609375c0-3.015625.445312-6.019531 1.332031-8.902343l.847657-2.777344 23.160156-55.222656 457.90625-1.136719 27.050781 58.609375c1.125 3.222656 1.703125 6.621094 1.703125 10.039062zm0 0" fill="#e29c6d"/><path d="m512 219.128906c0 3.820313-.15625 7.609375-.464844 11.355469l-1.199218.238281c-50.796876 0-50.796876-23.191406-101.597657-23.191406-50.796875 0-50.796875 23.191406-101.59375 23.191406-50.800781 0-50.800781-23.191406-101.597656-23.191406-50.789063 0-50.789063 23.191406-101.585937 23.191406-50.789063 0-50.789063-23.191406-101.585938-23.191406l-.195312-.691406 18.945312-61.957032h466.734375l22.4375 64.207032c1.125 3.222656 1.703125 6.621094 1.703125 10.039062zm0 0" fill="#ffeee1"/><path d="m188.53125 349.113281-27.054688-27.058593c-8.9375-8.9375-8.9375-23.425782 0-32.363282l151.882813-151.890625 59.414063 59.421875-151.882813 151.890625c-8.9375 8.9375-23.425781 8.9375-32.359375 0zm0 0" fill="#c97f4c"/><path d="m313.359375 137.800781-19.304687 19.304688c22.152343 22.15625 22.152343 58.074219 0 80.230469l-108.648438 108.652343 3.125 3.125c8.9375 8.9375 23.421875 8.9375 32.359375 0l151.882813-151.890625zm0 0" fill="#af6a3a"/><path d="m393.578125 176.40625-59.414063-59.421875c9.976563-4.269531 25.957032-12.589844 41.3125-28.164063 14.679688-14.890624 22.664063-30.207031 26.867188-40.015624 19.804688 19.804687 39.609375 39.613281 59.414062 59.417968-10.46875 5.09375-25.789062 14.074219-40.746093 29.304688-14.027344 14.28125-22.488281 28.714844-27.433594 38.878906zm0 0" fill="#c97f4c"/><path d="m402.34375 48.800781c-2.222656 5.1875-5.515625 11.921875-10.285156 19.3125.128906.125.253906.25.378906.378907 17.753906 17.753906 17.484375 46.597656-.570312 64.042968-.910157.878906-1.820313 1.78125-2.730469 2.707032-6.730469 6.851562-12.164063 13.730468-16.558594 20.164062l21 21c4.945313-10.164062 13.40625-24.597656 27.433594-38.878906 14.957031-15.230469 30.273437-24.210938 40.746093-29.304688-19.804687-19.804687-39.609374-39.613281-59.414062-59.421875zm0 0" fill="#af6a3a"/><path d="m483.191406 86.789062-59.414062-59.421874c5.492187-5.910157 14.859375-14.382813 28.648437-20.375 25.238281-10.960938 48.472657-6.289063 56.785157-4.1875 1.964843 7.515624 6.683593 29.617187-3.699219 53.871093-6.542969 15.277344-16.347657 25.035157-22.320313 30.113281zm0 0" fill="#c97f4c"/><path d="m509.210938 2.804688c-4.355469-1.101563-12.8125-2.9023442-23.5-2.7968755 2.0625 9.6914065 4.410156 29.0898435-4.59375 50.1171875-3.808594 8.902344-8.726563 15.917969-13.351563 21.238281l15.425781 15.425781c5.972656-5.078124 15.777344-14.835937 22.316406-30.113281 10.382813-24.253906 5.667969-46.355469 3.703126-53.871093zm0 0" fill="#af6a3a"/><path d="m372.875 198.570312-59.410156-59.417968c-5.917969-5.917969-5.917969-15.515625 0-21.433594 5.917968-5.917969 15.515625-5.917969 21.433594 0l59.410156 59.417969c5.917968 5.917969 5.917968 15.511719 0 21.433593-5.917969 5.917969-15.515625 5.917969-21.433594 0zm0 0" fill="#c97f4c"/><path d="m462.484375 108.949219-59.410156-59.414063c-5.917969-5.921875-5.917969-15.515625 0-21.433594 5.917969-5.921874 15.515625-5.921874 21.433593 0l59.414063 59.417969c5.917969 5.917969 5.917969 15.511719 0 21.429688-5.921875 5.921875-15.519531 5.921875-21.4375 0zm0 0" fill="#c97f4c"/><g fill="#bddff4"><path d="m222.484375 118.0625c-4.273437 0-7.742187-3.464844-7.742187-7.742188 0-50.363281 40.96875-91.335937 91.324218-91.335937 4.277344 0 7.746094 3.46875 7.746094 7.746094 0 4.277343-3.46875 7.742187-7.746094 7.742187-41.816406 0-75.835937 34.023438-75.835937 75.847656 0 4.277344-3.46875 7.742188-7.746094 7.742188zm0 0"/><path d="m252.296875 118.0625c-4.277344 0-7.742187-3.464844-7.742187-7.742188 0-33.921874 27.59375-61.519531 61.511718-61.519531 4.277344 0 7.746094 3.464844 7.746094 7.742188 0 4.277343-3.46875 7.746093-7.746094 7.746093-25.378906 0-46.027344 20.648438-46.027344 46.03125 0 4.277344-3.464843 7.742188-7.742187 7.742188zm0 0"/><path d="m281.21875 118.0625c-4.277344 0-7.742188-3.464844-7.742188-7.742188 0-17.972656 14.621094-32.59375 32.589844-32.59375 4.277344 0 7.742188 3.46875 7.742188 7.746094 0 4.273438-3.464844 7.742188-7.742188 7.742188-9.429687 0-17.101562 7.671875-17.101562 17.105468 0 4.277344-3.46875 7.742188-7.746094 7.742188zm0 0"/></g></svg>