<svg height="512pt" viewBox="-3 0 512 512" width="512pt" xmlns="http://www.w3.org/2000/svg"><path d="m506.144531 512h-506.144531c9.238281-24.875 29.347656-44.945312 55.574219-53.640625l85.34375-28.296875 28.722656-9.527344c4.425781-1.464844 8.398437-3.761718 11.800781-6.660156 7.671875-6.566406 12.355469-16.269531 12.355469-26.8125v-41.304688h118.554687v41.304688c0 10.542969 4.679688 20.246094 12.351563 26.8125 3.390625 2.898438 7.375 5.195312 11.800781 6.660156l28.714844 9.527344 85.351562 28.296875c26.226563 8.695313 46.335938 28.765625 55.574219 53.640625zm0 0" fill="#fedfc5"/><path d="m312.351562 345.757812v36.789063l-19.484374 17.660156c-7.511719 6.804688-17.292969 10.574219-27.425782 10.574219h-24.738281c-10.140625 0-19.914063-3.769531-27.433594-10.574219l-19.472656-17.652343v-36.800782h118.554687zm0 0" fill="#fecbaa"/><path d="m364.382812 281.617188c-3.414062 21.488281-14.0625 41.164062-30.183593 55.777343l-41.332031 37.460938c-7.511719 6.808593-17.289063 10.582031-27.425782 10.582031h-24.738281c-10.140625 0-19.917969-3.769531-27.429687-10.582031l-41.332032-37.460938c-16.117187-14.613281-26.765625-34.289062-30.179687-55.777343l-6.558594-82.214844c-5.484375-68.792969 48.859375-127.648438 117.867187-127.648438 69.007813 0 123.351563 58.855469 117.867188 127.648438zm0 0" fill="#fedfc5"/><path d="m231.003906 474.464844c-1.550781 0-3.113281-.46875-4.46875-1.4375-4.851562-3.476563-9.960937-5.585938-15.1875-6.261719-4.960937-.648437-8.769531.175781-13.179687 1.125-5.019531 1.085937-10.714844 2.3125-18.25 1.402344-8.085938-.976563-16.023438-4.210938-23.585938-9.609375-3.453125-2.464844-4.257812-7.261719-1.792969-10.71875 2.464844-3.453125 7.265626-4.253906 10.71875-1.789063 5.445313 3.886719 11 6.195313 16.503907 6.859375 4.972656.601563 8.773437-.21875 13.167969-1.167968 5.066406-1.089844 10.8125-2.328126 18.398437-1.34375 7.765625 1.011718 15.21875 4.042968 22.15625 9.007812 3.449219 2.472656 4.242187 7.273438 1.773437 10.722656-1.5 2.09375-3.859374 3.210938-6.253906 3.210938zm0 0" fill="#fecbaa"/><path d="m275.140625 474.464844c-2.394531 0-4.753906-1.117188-6.253906-3.210938-2.472657-3.449218-1.675781-8.25 1.773437-10.722656 6.9375-4.964844 14.390625-7.996094 22.15625-9.007812 7.585938-.984376 13.328125.253906 18.394532 1.34375 4.398437.949218 8.195312 1.765624 13.171874 1.167968 5.503907-.664062 11.054688-2.972656 16.503907-6.859375 3.453125-2.464843 8.253906-1.664062 10.71875 1.789063 2.464843 3.453125 1.660156 8.253906-1.792969 10.71875-7.566406 5.398437-15.5 8.632812-23.585938 9.609375-7.535156.910156-13.230468-.316407-18.253906-1.402344-4.410156-.949219-8.214844-1.773437-13.175781-1.125-5.226563.679687-10.335937 2.785156-15.1875 6.261719-1.359375.96875-2.921875 1.4375-4.46875 1.4375zm0 0" fill="#fecbaa"/><g fill="#ffae85"><path d="m276.800781 315.773438c-2.359375 0-4.6875-1.082032-6.191406-3.128907-1.148437-1.558593-2.925781-3.492187-4.878906-3.855469-.480469-.089843-.566407-.105468-2.289063.445313-2.066406.660156-4.894531 1.566406-9.199218 1.613281-4.835938.046875-7.914063-1.011718-10.160157-1.792968-1.648437-.574219-2.074219-.703126-3.027343-.613282-2.273438.226563-4.753907 1.789063-7.371094 4.648438-2.867188 3.132812-7.726563 3.34375-10.855469.476562-3.128906-2.863281-3.34375-7.726562-.476563-10.855468 5.253907-5.734376 11.035157-8.953126 17.1875-9.5625 4.359376-.429688 7.378907.621093 9.585938 1.386718 1.679688.585938 2.769531.988282 4.941406.945313 2-.023438 3.128906-.382813 4.695313-.882813 2.28125-.730468 5.40625-1.730468 9.777343-.917968 5.53125 1.03125 10.390626 4.34375 14.445313 9.855468 2.515625 3.417969 1.785156 8.226563-1.632813 10.742188-1.371093 1.011718-2.96875 1.496094-4.550781 1.496094zm0 0"/><path d="m252.800781 331.585938c-.058593 0-.121093 0-.179687 0-3.605469-.019532-7.167969-.625-10.582032-1.808594-4.007812-1.386719-6.136718-5.761719-4.75-9.769532 1.386719-4.011718 5.761719-6.140624 9.773438-4.753906 1.820312.632813 3.71875.957032 5.640625.964844 1.78125.039062 3.570313-.253906 5.289063-.785156 4.054687-1.253906 8.355468 1.011718 9.609374 5.066406 1.253907 4.054688-1.011718 8.359375-5.066406 9.613281-3.160156.976563-6.433594 1.472657-9.734375 1.472657zm0 0"/><path d="m299.265625 229.394531c-.367187 0-.730469-.007812-1.097656-.015625-8.078125-.203125-16.074219-2.652344-23.761719-7.273437-3.636719-2.1875-4.8125-6.910157-2.625-10.546875 2.1875-3.636719 6.910156-4.8125 10.542969-2.625 5.382812 3.238281 10.839843 4.945312 16.230469 5.082031 5.863281.136719 11.792968-1.5625 17.644531-5.082031 3.636719-2.1875 8.355469-1.007813 10.542969 2.625 2.1875 3.636718 1.011718 8.359375-2.625 10.546875-8.046876 4.835937-16.402344 7.289062-24.851563 7.289062zm0 0"/><path d="m206.886719 229.394531c-.367188 0-.730469-.007812-1.097657-.015625-8.082031-.203125-16.078124-2.652344-23.761718-7.273437-3.636719-2.191407-4.8125-6.910157-2.625-10.546875 2.1875-3.636719 6.90625-4.8125 10.542968-2.625 5.378907 3.238281 10.839844 4.945312 16.230469 5.082031 5.863281.136719 11.792969-1.5625 17.640625-5.082031 3.636719-2.1875 8.359375-1.007813 10.542969 2.625 2.1875 3.636718 1.011719 8.359375-2.625 10.546875-8.042969 4.835937-16.398437 7.289062-24.847656 7.289062zm0 0"/></g><path d="m211.773438 116.382812c-12.199219 0-17.875-4.757812-20.507813-9.324218-3.363281-5.820313-4.523437-16.085938 9.035156-31.917969 8.847657-10.328125 22.234375-20.9375 37.703125-29.867187 15.464844-8.929688 31.347656-15.222657 44.714844-17.722657 20.488281-3.824219 28.796875 2.3125 32.15625 8.136719 3.363281 5.824219 4.523438 16.085938-9.03125 31.917969-8.851562 10.332031-22.238281 20.941406-37.707031 29.867187-15.464844 8.929688-31.347657 15.222656-44.714844 17.722656-4.425781.828126-8.285156 1.1875-11.648437 1.1875zm83.136718-74.652343c-9.101562 0-26.753906 3.875-49.222656 16.851562-14 8.082031-25.972656 17.511719-33.71875 26.558594-7.667969 8.953125-7.78125 13.574219-7.398438 14.238281.382813.660156 4.441407 2.875 16.03125.710938 11.703126-2.1875 25.859376-7.84375 39.855469-15.925782 13.996094-8.078124 25.972657-17.511718 33.714844-26.554687 7.667969-8.957031 7.78125-13.574219 7.398437-14.238281-.558593-.96875-2.871093-1.640625-6.660156-1.640625zm0 0" fill="#83d9ff"/><path d="m253.070312 142.746094c-6.726562 0-16.203124-4.125-23.140624-23.78125-4.527344-12.828125-7.019532-29.730469-7.019532-47.59375 0-17.859375 2.492188-34.761719 7.019532-47.589844 6.9375-19.65625 16.414062-23.78125 23.140624-23.78125 6.730469 0 16.203126 4.125 23.140626 23.78125 4.527343 12.828125 7.023437 29.730469 7.023437 47.589844 0 17.863281-2.496094 34.765625-7.023437 47.59375-6.9375 19.65625-16.410157 23.78125-23.140626 23.78125zm0-127.378906c-3.800781 0-14.796874 19.257812-14.796874 56.003906 0 36.75 10.996093 56.007812 14.796874 56.007812 3.800782 0 14.796876-19.257812 14.796876-56.007812 0-36.746094-10.992188-56.003906-14.796876-56.003906zm0 0" fill="#fd82ac"/><path d="m294.367188 116.382812c-3.363282 0-7.21875-.359374-11.648438-1.1875-13.371094-2.5-29.25-8.792968-44.714844-17.722656-15.46875-8.929687-28.855468-19.535156-37.703125-29.867187-13.558593-15.832031-12.398437-26.09375-9.035156-31.917969 3.359375-5.824219 11.667969-11.960938 32.15625-8.136719 13.371094 2.5 29.25 8.792969 44.714844 17.722657 15.46875 8.929687 28.855469 19.539062 37.707031 29.867187 13.554688 15.832031 12.394531 26.097656 9.03125 31.917969-2.632812 4.566406-8.308594 9.324218-20.507812 9.324218zm-82.574219-74.652343c-4.96875 0-6.957031 1.183593-7.222657 1.640625-.382812.664062-.269531 5.28125 7.398438 14.238281 7.746094 9.042969 19.71875 18.472656 33.71875 26.554687 31.820312 18.375 53.984375 18.5 55.882812 15.214844.382813-.664062.269532-5.285156-7.398437-14.238281-7.746094-9.046875-19.71875-18.476563-33.71875-26.558594-13.996094-8.082031-28.148437-13.738281-39.855469-15.925781-3.632812-.675781-6.53125-.925781-8.804687-.925781zm0 0" fill="#7f7ce8"/></svg>